<svg xmlns="http://www.w3.org/2000/svg" version="1.1" xmlns:xlink="http://www.w3.org/1999/xlink" xmlns:svgjs="http://svgjs.dev/svgjs" viewBox="0 0 800 800"><g fill="none" stroke-width="3" stroke="hsl(50, 98%, 50%)" stroke-linecap="round"><line x1="626" y1="400" x2="174" y2="400" transform="rotate(0, 400, 400)" opacity="0.62"></line><line x1="415.5" y1="400" x2="384.5" y2="400" transform="rotate(4, 400, 400)" opacity="0.35"></line><line x1="563" y1="400" x2="237" y2="400" transform="rotate(8, 400, 400)" opacity="0.86"></line><line x1="291.5" y1="400" x2="508.5" y2="400" transform="rotate(12, 400, 400)" opacity="0.71"></line><line x1="555" y1="400" x2="245" y2="400" transform="rotate(16, 400, 400)" opacity="0.44"></line><line x1="582" y1="400" x2="218" y2="400" transform="rotate(20, 400, 400)" opacity="0.54"></line><line x1="558" y1="400" x2="242" y2="400" transform="rotate(24, 400, 400)" opacity="0.29"></line><line x1="652" y1="400" x2="148" y2="400" transform="rotate(28, 400, 400)" opacity="0.70"></line><line x1="522" y1="400" x2="278" y2="400" transform="rotate(32, 400, 400)" opacity="0.91"></line><line x1="587" y1="400" x2="213" y2="400" transform="rotate(36, 400, 400)" opacity="0.52"></line><line x1="301.5" y1="400" x2="498.5" y2="400" transform="rotate(40, 400, 400)" opacity="0.62"></line><line x1="392.5" y1="400" x2="407.5" y2="400" transform="rotate(44, 400, 400)" opacity="0.41"></line><line x1="671.5" y1="400" x2="128.5" y2="400" transform="rotate(48, 400, 400)" opacity="0.29"></line><line x1="485.5" y1="400" x2="314.5" y2="400" transform="rotate(52, 400, 400)" opacity="0.19"></line><line x1="463.5" y1="400" x2="336.5" y2="400" transform="rotate(56, 400, 400)" opacity="0.44"></line><line x1="658.5" y1="400" x2="141.5" y2="400" transform="rotate(60, 400, 400)" opacity="0.15"></line><line x1="243" y1="400" x2="557" y2="400" transform="rotate(64, 400, 400)" opacity="0.88"></line><line x1="537.5" y1="400" x2="262.5" y2="400" transform="rotate(68, 400, 400)" opacity="0.59"></line><line x1="376.5" y1="400" x2="423.5" y2="400" transform="rotate(72, 400, 400)" opacity="0.60"></line><line x1="74.5" y1="400" x2="725.5" y2="400" transform="rotate(76, 400, 400)" opacity="0.12"></line><line x1="77" y1="400" x2="723" y2="400" transform="rotate(80, 400, 400)" opacity="0.87"></line><line x1="355.5" y1="400" x2="444.5" y2="400" transform="rotate(84, 400, 400)" opacity="0.18"></line><line x1="500.5" y1="400" x2="299.5" y2="400" transform="rotate(88, 400, 400)" opacity="0.12"></line><line x1="668.5" y1="400" x2="131.5" y2="400" transform="rotate(92, 400, 400)" opacity="0.83"></line><line x1="74.5" y1="400" x2="725.5" y2="400" transform="rotate(96, 400, 400)" opacity="0.14"></line><line x1="613.5" y1="400" x2="186.5" y2="400" transform="rotate(100, 400, 400)" opacity="0.23"></line><line x1="182.5" y1="400" x2="617.5" y2="400" transform="rotate(104, 400, 400)" opacity="0.82"></line><line x1="298.5" y1="400" x2="501.5" y2="400" transform="rotate(108, 400, 400)" opacity="0.61"></line><line x1="312" y1="400" x2="488" y2="400" transform="rotate(112, 400, 400)" opacity="0.78"></line><line x1="550.5" y1="400" x2="249.5" y2="400" transform="rotate(116, 400, 400)" opacity="0.61"></line><line x1="52" y1="400" x2="748" y2="400" transform="rotate(120, 400, 400)" opacity="0.48"></line><line x1="588.5" y1="400" x2="211.5" y2="400" transform="rotate(124, 400, 400)" opacity="0.33"></line><line x1="178.5" y1="400" x2="621.5" y2="400" transform="rotate(128, 400, 400)" opacity="0.58"></line><line x1="269.5" y1="400" x2="530.5" y2="400" transform="rotate(132, 400, 400)" opacity="0.96"></line><line x1="470" y1="400" x2="330" y2="400" transform="rotate(136, 400, 400)" opacity="0.42"></line><line x1="423" y1="400" x2="377" y2="400" transform="rotate(140, 400, 400)" opacity="0.16"></line><line x1="738" y1="400" x2="62" y2="400" transform="rotate(144, 400, 400)" opacity="0.17"></line><line x1="98.5" y1="400" x2="701.5" y2="400" transform="rotate(148, 400, 400)" opacity="0.90"></line><line x1="520" y1="400" x2="280" y2="400" transform="rotate(152, 400, 400)" opacity="0.60"></line><line x1="410" y1="400" x2="390" y2="400" transform="rotate(156, 400, 400)" opacity="0.84"></line><line x1="260.5" y1="400" x2="539.5" y2="400" transform="rotate(160, 400, 400)" opacity="0.52"></line><line x1="114.5" y1="400" x2="685.5" y2="400" transform="rotate(164, 400, 400)" opacity="0.09"></line><line x1="410" y1="400" x2="390" y2="400" transform="rotate(168, 400, 400)" opacity="0.17"></line><line x1="271.5" y1="400" x2="528.5" y2="400" transform="rotate(172, 400, 400)" opacity="0.41"></line><line x1="248" y1="400" x2="552" y2="400" transform="rotate(176, 400, 400)" opacity="0.70"></line><line x1="299" y1="400" x2="501" y2="400" transform="rotate(180, 400, 400)" opacity="0.42"></line><line x1="587.5" y1="400" x2="212.5" y2="400" transform="rotate(184, 400, 400)" opacity="0.51"></line><line x1="164.5" y1="400" x2="635.5" y2="400" transform="rotate(188, 400, 400)" opacity="0.99"></line><line x1="707" y1="400" x2="93" y2="400" transform="rotate(192, 400, 400)" opacity="0.10"></line><line x1="498.5" y1="400" x2="301.5" y2="400" transform="rotate(196, 400, 400)" opacity="0.58"></line><line x1="74" y1="400" x2="726" y2="400" transform="rotate(200, 400, 400)" opacity="0.62"></line><line x1="267" y1="400" x2="533" y2="400" transform="rotate(204, 400, 400)" opacity="0.70"></line><line x1="70.5" y1="400" x2="729.5" y2="400" transform="rotate(208, 400, 400)" opacity="0.64"></line><line x1="228.5" y1="400" x2="571.5" y2="400" transform="rotate(212, 400, 400)" opacity="0.51"></line><line x1="390" y1="400" x2="410" y2="400" transform="rotate(216, 400, 400)" opacity="0.51"></line><line x1="441" y1="400" x2="359" y2="400" transform="rotate(220, 400, 400)" opacity="0.30"></line><line x1="684.5" y1="400" x2="115.5" y2="400" transform="rotate(224, 400, 400)" opacity="0.94"></line><line x1="44" y1="400" x2="756" y2="400" transform="rotate(228, 400, 400)" opacity="0.39"></line><line x1="46" y1="400" x2="754" y2="400" transform="rotate(232, 400, 400)" opacity="0.77"></line><line x1="331" y1="400" x2="469" y2="400" transform="rotate(236, 400, 400)" opacity="0.86"></line><line x1="95.5" y1="400" x2="704.5" y2="400" transform="rotate(240, 400, 400)" opacity="0.67"></line><line x1="275" y1="400" x2="525" y2="400" transform="rotate(244, 400, 400)" opacity="0.20"></line><line x1="349" y1="400" x2="451" y2="400" transform="rotate(248, 400, 400)" opacity="0.59"></line><line x1="513.5" y1="400" x2="286.5" y2="400" transform="rotate(252, 400, 400)" opacity="0.71"></line><line x1="475" y1="400" x2="325" y2="400" transform="rotate(256, 400, 400)" opacity="0.68"></line><line x1="81.5" y1="400" x2="718.5" y2="400" transform="rotate(260, 400, 400)" opacity="0.75"></line><line x1="513.5" y1="400" x2="286.5" y2="400" transform="rotate(264, 400, 400)" opacity="0.58"></line><line x1="726.5" y1="400" x2="73.5" y2="400" transform="rotate(268, 400, 400)" opacity="0.65"></line><line x1="185.5" y1="400" x2="614.5" y2="400" transform="rotate(272, 400, 400)" opacity="0.20"></line><line x1="594" y1="400" x2="206" y2="400" transform="rotate(276, 400, 400)" opacity="0.97"></line><line x1="620.5" y1="400" x2="179.5" y2="400" transform="rotate(280, 400, 400)" opacity="0.87"></line><line x1="193" y1="400" x2="607" y2="400" transform="rotate(284, 400, 400)" opacity="0.24"></line><line x1="142.5" y1="400" x2="657.5" y2="400" transform="rotate(288, 400, 400)" opacity="0.52"></line><line x1="365" y1="400" x2="435" y2="400" transform="rotate(292, 400, 400)" opacity="0.86"></line><line x1="289" y1="400" x2="511" y2="400" transform="rotate(296, 400, 400)" opacity="0.74"></line><line x1="351" y1="400" x2="449" y2="400" transform="rotate(300, 400, 400)" opacity="0.18"></line><line x1="723.5" y1="400" x2="76.5" y2="400" transform="rotate(304, 400, 400)" opacity="0.70"></line><line x1="736" y1="400" x2="64" y2="400" transform="rotate(308, 400, 400)" opacity="0.97"></line><line x1="227.5" y1="400" x2="572.5" y2="400" transform="rotate(312, 400, 400)" opacity="0.27"></line><line x1="224.5" y1="400" x2="575.5" y2="400" transform="rotate(316, 400, 400)" opacity="0.61"></line><line x1="287" y1="400" x2="513" y2="400" transform="rotate(320, 400, 400)" opacity="0.58"></line><line x1="265.5" y1="400" x2="534.5" y2="400" transform="rotate(324, 400, 400)" opacity="0.53"></line><line x1="357" y1="400" x2="443" y2="400" transform="rotate(328, 400, 400)" opacity="0.85"></line><line x1="385" y1="400" x2="415" y2="400" transform="rotate(332, 400, 400)" opacity="0.52"></line><line x1="102" y1="400" x2="698" y2="400" transform="rotate(336, 400, 400)" opacity="0.59"></line><line x1="423" y1="400" x2="377" y2="400" transform="rotate(340, 400, 400)" opacity="0.98"></line><line x1="393.5" y1="400" x2="406.5" y2="400" transform="rotate(344, 400, 400)" opacity="0.14"></line><line x1="183.5" y1="400" x2="616.5" y2="400" transform="rotate(348, 400, 400)" opacity="0.60"></line></g></svg>